<svg width="944" height="416" viewBox="0 0 944 416" fill="none" xmlns="http://www.w3.org/2000/svg">
<path fill-rule="evenodd" clip-rule="evenodd" d="M263.281 371.83C263.281 347.694 282.852 328.128 306.995 328.128C331.137 328.128 350.709 347.694 350.709 371.83L350.894 371.83C350.894 386.311 362.637 398.051 377.122 398.051C391.608 398.051 403.351 386.311 403.351 371.83L403.35 371.83C403.35 347.694 422.922 328.128 447.064 328.128C471.207 328.128 490.778 347.694 490.778 371.83L473.293 371.83C473.293 357.348 461.55 345.608 447.064 345.608C432.579 345.608 420.836 357.348 420.836 371.83C420.836 395.966 401.264 415.532 377.122 415.532C352.979 415.532 333.408 395.966 333.408 371.83L333.223 371.83C333.223 357.348 321.48 345.608 306.995 345.608C292.509 345.608 280.766 357.348 280.766 371.83C280.766 395.966 261.195 415.532 237.052 415.532C212.91 415.532 193.338 395.966 193.338 371.83H210.824C210.824 386.311 222.567 398.051 237.053 398.051C251.538 398.051 263.281 386.311 263.281 371.83L263.281 371.83ZM586.949 328.128C562.806 328.128 543.235 347.694 543.235 371.83L560.72 371.83L543.235 371.83C543.235 386.311 531.492 398.051 517.007 398.051C502.521 398.051 490.778 386.311 490.778 371.83H473.292C473.292 395.966 492.864 415.532 517.006 415.532C541.149 415.532 560.72 395.966 560.72 371.83C560.72 357.348 572.463 345.608 586.949 345.608C601.434 345.608 613.177 357.348 613.177 371.83L613.27 371.83C613.27 395.966 632.841 415.532 656.984 415.532C681.126 415.532 700.698 395.966 700.698 371.83L700.698 371.71V371.83H683.212C683.212 386.311 671.469 398.051 656.984 398.051C642.498 398.051 630.755 386.311 630.755 371.83L630.663 371.83C630.663 347.694 611.092 328.128 586.949 328.128Z" fill="#34EDB3" fill-opacity="0.7"/>
<path d="M658 0H944V203C944 241.108 913.108 272 875 272H658V0Z" fill="#F8FFC7"/>
<path fill-rule="evenodd" clip-rule="evenodd" d="M755.5 182L658 182C658 235.848 701.652 279.5 755.5 279.5C809.348 279.5 853 235.848 853 182L755.5 182ZM756 242C789.137 242 816 215.137 816 182L756 182L696 182C696 215.137 722.863 242 756 242Z" fill="#34EDB3"/>
<path d="M541 165.5C443.5 165.5 497.348 165.5 443.5 165.5C389.652 165.5 443.5 165.5 346 165.5C346 111.652 389.652 68 443.5 68C497.348 68 541 111.652 541 165.5Z" fill="#34EDB3"/>
<path d="M853 164.5C755.5 164.5 809.348 164.5 755.5 164.5C701.652 164.5 755.5 164.5 658 164.5C658 110.652 701.652 67 755.5 67C809.348 67 853 110.652 853 164.5Z" fill="#34EDB3"/>
<path d="M381 112H658V326H381V112Z" fill="#FF7300"/>
<path d="M658 196H853V416H658V196Z" fill="#FFBF00"/>
<path fill-rule="evenodd" clip-rule="evenodd" d="M693 182C687.745 229.54 647.441 266.516 598.5 266.516C549.56 266.516 509.255 229.54 504 182L539.339 182C544.023 210.039 568.4 231.409 597.769 231.409C627.137 231.409 651.515 210.039 656.199 182L693 182Z" fill="#34EDB3"/>
<path d="M382 191.5C284.5 191.5 338.348 191.5 284.5 191.5C230.652 191.5 284.5 191.5 187 191.5C187 137.652 230.652 94 284.5 94C338.348 94 382 137.652 382 191.5Z" fill="#F8FFC7"/>
<rect y="164.851" width="944" height="30.9787" fill="#391D75"/>
<path fill-rule="evenodd" clip-rule="evenodd" d="M283.5 196L186 196C186 249.848 229.652 293.5 283.5 293.5C337.348 293.5 381 249.848 381 196L283.5 196ZM284 256C317.137 256 344 229.137 344 196L284 196L224 196C224 229.137 250.863 256 284 256Z" fill="#34EDB3"/>
</svg>
